<svg xmlns="http://www.w3.org/2000/svg" version="1.1" xmlns:xlink="http://www.w3.org/1999/xlink" xmlns:svgjs="http://svgjs.com/svgjs" width="330" height="100" preserveAspectRatio="none" viewBox="0 0 330 100"><g mask="url(&quot;#SvgjsMask1034&quot;)" fill="none"><rect width="330" height="100" x="0" y="0" fill="rgba(255, 173, 52, 1)"></rect><path d="M0,101.694C18.787,100.192,34.059,87.858,49.91,77.662C65.754,67.47,84.098,59.107,92.455,42.223C100.902,25.159,95.728,5.353,95.123,-13.677C94.437,-35.266,103.052,-60.716,88.673,-76.835C74.272,-92.978,47.974,-87.325,26.578,-90.516C8.286,-93.244,-9.339,-96.743,-27.655,-94.186C-48.464,-91.281,-69.539,-87.459,-86.278,-74.76C-105.234,-60.379,-125.354,-42.035,-127.618,-18.349C-129.875,5.261,-111.19,25.113,-97.688,44.613C-86.207,61.195,-72.73,75.899,-55.316,86.074C-38.431,95.94,-19.494,103.252,0,101.694" fill="#ff9800"></path><path d="M330 240.083C356.499 236.53 381.778 229.941 405.05 216.78 429.435 202.99 453.382 187.043 467.038 162.583 481.286 137.063 488.264 106.727 482.486 78.076 476.84000000000003 50.077 458.993 25.051000000000002 435.90999999999997 8.227999999999994 415.054-6.971999999999994 385.981 0.37699999999999534 362.182-9.602999999999994 333.876-21.473 314.532-61.139999999999986 284.398-55.30600000000001 255.071-49.627999999999986 246.635-10.804000000000002 232.49 15.507000000000005 221.072 36.744 213.85399999999998 58.942 210.166 82.77 206.441 106.836 206.308 130.449 210.999 154.346 216.868 184.24599999999998 216.07299999999998 220.993 240.796 238.805 265.423 256.548 299.916 244.117 330 240.083" fill="#ffc268"></path></g><defs><mask id="SvgjsMask1034"><rect width="330" height="100" fill="#ffffff"></rect></mask></defs></svg>